<?xml version="1.0" encoding="UTF-8"?>
<svg width="70px" height="94px" viewBox="0 0 70 94" version="1.1" xmlns="http://www.w3.org/2000/svg" xmlns:xlink="http://www.w3.org/1999/xlink">
    <!-- Generator: Sketch 43.1 (39012) - http://www.bohemiancoding.com/sketch -->
    <title>expensive</title>
    <desc>Created with Sketch.</desc>
    <defs>
        <linearGradient x1="50%" y1="0%" x2="50%" y2="100%" id="linearGradient-1">
            <stop stop-color="#4533E1" offset="0%"></stop>
            <stop stop-color="#2FDF33" offset="100%"></stop>
        </linearGradient>
    </defs>
    <g id="Page-1" stroke="none" stroke-width="1" fill="none" fill-rule="evenodd">
        <g id="expensive">
            <g id="Fill-196" fill-rule="nonzero" fill="url(#linearGradient-1)">
                <path d="M57.6724668,46.7317605 C52.9684668,52.2517605 47.9004668,54.0617605 43.1024668,55.0517605 C39.9214668,55.7117605 34.9654668,56.3417605 32.5844668,58.5117605 C33.1834668,57.1117605 34.2144668,55.6717605 35.9524668,54.4217605 C41.7464668,50.2617605 48.2624668,47.2717605 48.2624668,34.7817605 C48.2624668,22.2917605 42.7404668,14.7817605 42.7404668,14.7817605 C42.7404668,14.7817605 42.0154668,13.9717605 42.6484668,15.2317605 C43.2834668,16.5017605 45.5454668,19.6717605 45.5454668,24.8317605 C45.5454668,29.9817605 38.5774668,36.4117605 34.5944668,38.5817605 C30.6124668,40.7517605 27.8084668,48.5417605 36.1344668,52.4317605 C36.1344668,52.4317605 32.2254668,55.6217605 31.2184668,58.9917605 C30.9644668,58.2717605 30.7564668,57.5717605 30.4624668,56.8317605 C25.9444668,45.5417605 25.9704668,35.6717605 26.0824668,32.9717605 C29.2344668,32.6517605 36.6174668,28.4817605 36.6174668,21.3617605 C36.6174668,17.9817605 36.2544668,15.9317605 33.7834668,10.9217605 C31.3114668,5.9117605 29.7074668,1.3817605 28.7104668,0.3917605 C27.7164668,-0.6082395 28.3054668,0.6217605 28.3054668,0.6217605 C28.3054668,0.6217605 29.7074668,3.3817605 29.7074668,5.6417605 C29.7074668,7.9017605 28.3054668,11.4817605 24.9574668,17.2217605 C21.6074668,22.9717605 22.8754668,28.4917605 23.1014668,29.9417605 C23.3254668,31.3917605 22.5584668,30.0717605 22.5584668,30.0717605 C22.5584668,30.0717605 20.4744668,25.9117605 22.2844668,20.3017605 C24.0964668,14.6917605 26.6294668,12.5217605 26.6294668,9.1717605 C26.6294668,5.8217605 23.7324668,2.2917605 21.9224668,0.7517605 C20.1134668,-0.7882395 21.2904668,0.7517605 21.2904668,0.7517605 C21.2904668,0.7517605 22.2844668,2.6517605 22.2844668,5.0917605 C22.2844668,11.5217605 15.4984668,13.0617605 15.4984668,21.6617605 C15.4984668,30.1617605 22.7904668,32.7017605 25.2744668,32.9717605 C25.2744668,43.4017605 26.8934668,49.7817605 28.5154668,55.1317605 C25.6124668,49.6817605 20.9284668,45.0717605 20.9284668,45.0717605 C20.9284668,45.0717605 22.8554668,40.0017605 19.3594668,37.1717605 C14.6534668,33.4917605 10.6704668,36.2017605 5.2984668,32.2817605 C-0.07153317,28.3517605 2.88746683,21.1817605 3.3704668,19.4317605 C3.8564668,17.6717605 3.1904668,18.9417605 3.1904668,18.9417605 C0.53646683,23.9517605 -0.79253317,31.5517605 1.86246683,38.7917605 C4.5174668,46.0317605 9.3434668,48.2717605 13.8104668,48.2717605 C18.2754668,48.2717605 20.3864668,45.9717605 20.3864668,45.9717605 C23.5214668,48.2717605 26.9014668,54.3617605 26.9014668,54.3617605 C26.9014668,54.3617605 23.7054668,51.7717605 18.3354668,51.7717605 C12.9654668,51.7717605 10.5504668,55.0817605 10.5504668,55.0817605 C6.8664668,55.0817605 2.88746683,57.9817605 2.88746683,63.3517605 C2.88746683,68.7217605 10.0664668,69.6217605 10.0664668,76.5017605 C10.0664668,81.8717605 6.3254668,84.5917605 5.1804668,85.5617605 C4.0364668,86.5217605 5.1204668,85.9217605 5.1204668,85.9217605 C10.9764668,82.6017605 16.3454668,74.6917605 16.3454668,66.9717605 C16.3454668,59.2517605 11.7564668,55.4417605 11.7564668,55.4417605 C11.7564668,55.4417605 13.9284668,52.6117605 18.3934668,52.6117605 C25.7984668,52.6117605 28.8384668,57.0617605 30.0714668,60.2117605 C31.0464668,63.5717605 31.7934668,66.8917605 31.7934668,71.0717605 C31.7934668,87.1317605 26.9014668,93.1146936 26.9014668,93.1146936 C26.0844668,91.8446936 29.2044668,95.46176 32.5844668,85.9217605 C35.5934668,77.4317605 35.5294668,72.5117605 31.9634668,61.1117605 C32.4124668,59.8917605 33.3054668,58.5817605 35.1374668,58.5817605 C38.5774668,58.5817605 37.3094668,67.3617605 46.1804668,67.3617605 C55.0504668,67.3617605 57.9464668,55.1417605 59.2104668,50.2617605 C60.4794668,45.3717605 65.0044668,41.1217605 69.3494668,39.6717605 C69.3494668,39.6717605 70.9774668,38.9417605 69.0774668,39.3117605 C67.1754668,39.6717605 62.3794668,41.2117605 57.6724668,46.7317605 Z"></path>
            </g>
            <g id="com" transform="translate(46.000000, 60.000000)">
                <circle id="Oval" stroke="#FF9F3A" stroke-width="2" cx="7.5" cy="7.5" r="7"></circle>
                <circle id="Oval" stroke="#FFCF2A" stroke-width="2" fill="#FF9F3A" cx="7" cy="7" r="7"></circle>
                <path d="M1.682,7.82494835 L2.36610056,7.82494835 L2.36610056,8.48936256 L1.682,8.48936256 L1.682,7.82494835 Z M4.72354061,6.79633672 C4.70057309,6.63884516 4.63741336,6.519908 4.53405952,6.43952168 C4.43070568,6.35913536 4.30028494,6.31894281 4.14279338,6.31894281 C4.07060974,6.31894281 3.99350565,6.33124665 3.9114788,6.35585471 C3.82945194,6.38046277 3.75398837,6.42639712 3.68508581,6.49365914 C3.61618325,6.56092116 3.55876531,6.65443037 3.51283027,6.77418958 C3.46689523,6.89394879 3.44392806,7.05061774 3.44392806,7.24420112 C3.44392806,7.34919549 3.4562319,7.45418829 3.48083996,7.55918267 C3.50544801,7.66417704 3.54482031,7.75768626 3.59895804,7.83971311 C3.65309576,7.92173997 3.72281755,7.98818073 3.80812548,8.03903738 C3.89343341,8.08989403 3.99678569,8.11532197 4.11818544,8.11532197 C4.28223915,8.11532197 4.41758144,8.06446608 4.52421635,7.96275278 C4.63085126,7.86103948 4.69729202,7.71831489 4.72354061,7.53457474 L5.2846015,7.53457474 C5.23210431,7.86596323 5.10660511,8.11942242 4.90810012,8.29495989 C4.70959512,8.47049736 4.44629287,8.55826478 4.11818544,8.55826478 C3.91803991,8.55826478 3.74168482,8.52463427 3.58911487,8.45737225 C3.43654491,8.39011023 3.30776468,8.29824153 3.20277031,8.18176339 C3.09777593,8.06528526 3.01821107,7.92666195 2.96407335,7.76588931 C2.90993562,7.60511667 2.88286717,7.43122235 2.88286717,7.24420112 C2.88286717,7.05389881 2.90911537,6.87508295 2.96161256,6.70774816 C3.01410974,6.54041337 3.09285434,6.39522802 3.19784872,6.27218773 C3.30284309,6.14914745 3.43326384,6.05235721 3.58911487,5.98181412 C3.74496589,5.91127102 3.92788304,5.876 4.13787179,5.876 C4.28552013,5.876 4.42578395,5.89486589 4.55866746,5.93259825 C4.69155096,5.9703306 4.80966786,6.02692828 4.9130217,6.10239299 C5.01637554,6.1778577 5.10086193,6.27300742 5.16648342,6.38784502 C5.2321049,6.50268262 5.2714772,6.63884516 5.2846015,6.79633672 L4.72354061,6.79633672 Z M6.90872513,8.55826478 C6.70529853,8.55826478 6.52402189,8.52463427 6.36488979,8.45737225 C6.20575769,8.39011023 6.07123567,8.29742127 5.96131968,8.1793026 C5.85140369,8.06118393 5.76773755,7.92009985 5.71031876,7.75604614 C5.65289996,7.59199243 5.62419099,7.41153605 5.62419099,7.2146716 C5.62419099,7.02108822 5.65289996,6.84227235 5.71031876,6.67821864 C5.76773755,6.51416493 5.85140369,6.37308085 5.96131968,6.25496218 C6.07123567,6.13684351 6.20575769,6.04415455 6.36488979,5.97689253 C6.52402189,5.90963051 6.70529853,5.876 6.90872513,5.876 C7.11215173,5.876 7.29342837,5.90963051 7.45256047,5.97689253 C7.61169257,6.04415455 7.74621459,6.13684351 7.85613058,6.25496218 C7.96604657,6.37308085 8.0497127,6.51416493 8.1071315,6.67821864 C8.1645503,6.84227235 8.19325927,7.02108822 8.19325927,7.2146716 C8.19325927,7.41153605 8.1645503,7.59199243 8.1071315,7.75604614 C8.0497127,7.92009985 7.96604657,8.06118393 7.85613058,8.1793026 C7.74621459,8.29742127 7.61169257,8.39011023 7.45256047,8.45737225 C7.29342837,8.52463427 7.11215173,8.55826478 6.90872513,8.55826478 Z M6.90872513,8.11532197 C7.03340595,8.11532197 7.14167978,8.08907377 7.23354986,8.03657658 C7.32541993,7.9840794 7.40088351,7.91517787 7.45994285,7.82986994 C7.51900218,7.74456201 7.56247576,7.64859203 7.59036489,7.54195712 C7.61825403,7.4353222 7.63219838,7.32622812 7.63219838,7.2146716 C7.63219838,7.10639615 7.61825403,6.99812232 7.59036489,6.88984687 C7.56247576,6.78157142 7.51900218,6.68560144 7.45994285,6.60193405 C7.40088351,6.51826665 7.32541993,6.45018538 7.23354986,6.3976882 C7.14167978,6.34519101 7.03340595,6.31894281 6.90872513,6.31894281 C6.78404431,6.31894281 6.67577048,6.34519101 6.5839004,6.3976882 C6.49203033,6.45018538 6.41656675,6.51826665 6.35750741,6.60193405 C6.29844808,6.68560144 6.2549745,6.78157142 6.22708536,6.88984687 C6.19919623,6.99812232 6.18525188,7.10639615 6.18525188,7.2146716 C6.18525188,7.32622812 6.19919623,7.4353222 6.22708536,7.54195712 C6.2549745,7.64859203 6.29844808,7.74456201 6.35750741,7.82986994 C6.41656675,7.91517787 6.49203033,7.9840794 6.5839004,8.03657658 C6.67577048,8.08907377 6.78404431,8.11532197 6.90872513,8.11532197 Z M8.66081001,5.94490221 L9.19234138,5.94490221 L9.19234138,6.29925646 L9.20710614,6.29925646 C9.24976011,6.23691605 9.29569446,6.17949811 9.34491057,6.12700092 C9.39412668,6.07450374 9.44908385,6.0302099 9.50978373,5.99411808 C9.5704836,5.95802627 9.64020538,5.9293173 9.71895116,5.90799031 C9.79769695,5.88666333 9.88792513,5.876 9.98963844,5.876 C10.1438489,5.876 10.2873938,5.91045076 10.4202773,5.97935332 C10.5531608,6.04825588 10.6474903,6.15488919 10.7032685,6.29925646 C10.7984197,6.16801349 10.908334,6.0646612 11.0330148,5.9891965 C11.1576956,5.91373179 11.3135443,5.876 11.5005656,5.876 C11.7696137,5.876 11.978779,5.9416205 12.1280679,6.07286347 C12.2773568,6.20410644 12.3520001,6.42393512 12.3520001,6.73235609 L12.3520001,8.48936256 L11.7909392,8.48936256 L11.7909392,7.00304337 C11.7909392,6.90133006 11.7876582,6.80864111 11.781096,6.72497371 C11.7745339,6.64130632 11.755668,6.56912377 11.7244978,6.5084239 C11.6933276,6.44772402 11.646573,6.40096942 11.5842325,6.36815868 C11.5218921,6.33534793 11.4365855,6.31894281 11.32831,6.31894281 C11.1380077,6.31894281 11.0002047,6.37800126 10.9148967,6.49611993 C10.8295888,6.6142386 10.7869355,6.78157088 10.7869355,6.99812178 L10.7869355,8.48936256 L10.2258746,8.48936256 L10.2258746,6.85539576 C10.2258746,6.67821775 10.1938846,6.54451598 10.1299037,6.45428644 C10.0659227,6.3640569 9.94862607,6.31894281 9.77801021,6.31894281 C9.70582657,6.31894281 9.63610479,6.33370742 9.56884277,6.36323709 C9.50158075,6.39276676 9.4425223,6.43542008 9.39166565,6.49119834 C9.34080899,6.54697661 9.29979618,6.61587813 9.26862598,6.69790499 C9.23745577,6.77993184 9.2218709,6.87344106 9.2218709,6.97843543 L9.2218709,8.48936256 L8.66081001,8.48936256 L8.66081001,5.94490221 Z" id=".com" fill="#FFCF2A"></path>
            </g>
            <g id="co" transform="translate(5.000000, 43.000000)">
                <circle id="Oval" stroke="#FF9F3A" stroke-width="3" cx="7.5" cy="7.5" r="7"></circle>
                <circle id="Oval" stroke="#FFCF2A" stroke-width="3" fill="#FF9F3A" cx="7" cy="7" r="7"></circle>
                <path d="M2.4885,8.055 L3.4615,8.055 L3.4615,9 L2.4885,9 L2.4885,8.055 Z M6.8145,6.592 C6.78183317,6.36799888 6.69200073,6.1988339 6.545,6.0845 C6.39799926,5.97016609 6.21250112,5.913 5.9885,5.913 C5.88583282,5.913 5.77616725,5.93049982 5.6595,5.9655 C5.54283275,6.00050017 5.43550049,6.06583285 5.3375,6.1615 C5.23949951,6.25716714 5.15783366,6.39016581 5.0925,6.5605 C5.02716634,6.73083418 4.9945,6.95366529 4.9945,7.229 C4.9945,7.37833408 5.01199982,7.52766592 5.047,7.677 C5.08200017,7.82633408 5.13799961,7.95933275 5.215,8.076 C5.29200038,8.19266725 5.39116606,8.2871663 5.5125,8.3595 C5.63383394,8.43183369 5.78083247,8.468 5.9535,8.468 C6.1868345,8.468 6.37933257,8.39566739 6.531,8.251 C6.68266742,8.10633261 6.77716648,7.90333464 6.8145,7.642 L7.6125,7.642 C7.53783296,8.11333569 7.35933474,8.47383208 7.077,8.7235 C6.79466525,8.97316791 6.420169,9.098 5.9535,9.098 C5.66883191,9.098 5.41800108,9.05016714 5.201,8.9545 C4.98399891,8.85883285 4.80083408,8.72816749 4.6515,8.5625 C4.50216592,8.3968325 4.38900038,8.19966781 4.312,7.971 C4.23499961,7.74233219 4.1965,7.49500133 4.1965,7.229 C4.1965,6.95833198 4.23383296,6.70400119 4.3085,6.466 C4.38316704,6.22799881 4.49516592,6.02150087 4.6445,5.8465 C4.79383408,5.67149912 4.97933222,5.53383383 5.201,5.4335 C5.42266777,5.33316616 5.68283184,5.283 5.9815,5.283 C6.19150105,5.283 6.39099905,5.30983306 6.58,5.3635 C6.76900094,5.41716693 6.93699926,5.49766613 7.084,5.605 C7.23100073,5.71233387 7.3511662,5.84766585 7.4445,6.011 C7.5378338,6.17433415 7.59383324,6.36799888 7.6125,6.592 L6.8145,6.592 Z M9.9225,9.098 C9.63316522,9.098 9.37533446,9.05016714 9.149,8.9545 C8.92266553,8.85883285 8.73133411,8.72700084 8.575,8.559 C8.41866588,8.39099916 8.29966707,8.1903345 8.218,7.957 C8.13633292,7.7236655 8.0955,7.4670014 8.0955,7.187 C8.0955,6.91166529 8.13633292,6.6573345 8.218,6.424 C8.29966707,6.1906655 8.41866588,5.99000084 8.575,5.822 C8.73133411,5.65399916 8.92266553,5.52216714 9.149,5.4265 C9.37533446,5.33083285 9.63316522,5.283 9.9225,5.283 C10.2118348,5.283 10.4696655,5.33083285 10.696,5.4265 C10.9223345,5.52216714 11.1136659,5.65399916 11.27,5.822 C11.4263341,5.99000084 11.5453329,6.1906655 11.627,6.424 C11.7086671,6.6573345 11.7495,6.91166529 11.7495,7.187 C11.7495,7.4670014 11.7086671,7.7236655 11.627,7.957 C11.5453329,8.1903345 11.4263341,8.39099916 11.27,8.559 C11.1136659,8.72700084 10.9223345,8.85883285 10.696,8.9545 C10.4696655,9.05016714 10.2118348,9.098 9.9225,9.098 Z M9.9225,8.468 C10.0998342,8.468 10.2538327,8.43066704 10.3845,8.356 C10.5151673,8.28133296 10.6224996,8.18333394 10.7065,8.062 C10.7905004,7.94066606 10.8523331,7.80416742 10.892,7.6525 C10.9316669,7.50083257 10.9515,7.34566746 10.9515,7.187 C10.9515,7.03299923 10.9316669,6.87900077 10.892,6.725 C10.8523331,6.57099923 10.7905004,6.43450059 10.7065,6.3155 C10.6224996,6.1964994 10.5151673,6.09966704 10.3845,6.025 C10.2538327,5.95033296 10.0998342,5.913 9.9225,5.913 C9.74516578,5.913 9.59116732,5.95033296 9.4605,6.025 C9.32983268,6.09966704 9.22250042,6.1964994 9.1385,6.3155 C9.05449958,6.43450059 8.99266686,6.57099923 8.953,6.725 C8.91333313,6.87900077 8.8935,7.03299923 8.8935,7.187 C8.8935,7.34566746 8.91333313,7.50083257 8.953,7.6525 C8.99266686,7.80416742 9.05449958,7.94066606 9.1385,8.062 C9.22250042,8.18333394 9.32983268,8.28133296 9.4605,8.356 C9.59116732,8.43066704 9.74516578,8.468 9.9225,8.468 Z" id=".co" fill="#FFCF2A"></path>
            </g>
            <g id="io" transform="translate(40.000000, 40.000000)">
                <circle id="Oval" stroke="#FF9F3A" stroke-width="3" cx="7.5" cy="7.5" r="7"></circle>
                <circle id="Oval" stroke="#FFCF2A" stroke-width="3" fill="#FF9F3A" cx="7" cy="7" r="7"></circle>
                <path d="M3.591,8.055 L4.564,8.055 L4.564,9 L3.591,9 L3.591,8.055 Z M5.495,4.002 L6.293,4.002 L6.293,4.758 L5.495,4.758 L5.495,4.002 Z M5.495,5.381 L6.293,5.381 L6.293,9 L5.495,9 L5.495,5.381 Z M8.82,9.098 C8.53066522,9.098 8.27283447,9.05016715 8.0465,8.9545 C7.82016554,8.85883286 7.62883412,8.72700084 7.4725,8.559 C7.31616589,8.39099916 7.19716708,8.1903345 7.1155,7.957 C7.03383293,7.7236655 6.993,7.4670014 6.993,7.187 C6.993,6.91166529 7.03383293,6.6573345 7.1155,6.424 C7.19716708,6.1906655 7.31616589,5.99000084 7.4725,5.822 C7.62883412,5.65399916 7.82016554,5.52216715 8.0465,5.4265 C8.27283447,5.33083286 8.53066522,5.283 8.82,5.283 C9.10933478,5.283 9.36716554,5.33083286 9.5935,5.4265 C9.81983447,5.52216715 10.0111659,5.65399916 10.1675,5.822 C10.3238341,5.99000084 10.4428329,6.1906655 10.5245,6.424 C10.6061671,6.6573345 10.647,6.91166529 10.647,7.187 C10.647,7.4670014 10.6061671,7.7236655 10.5245,7.957 C10.4428329,8.1903345 10.3238341,8.39099916 10.1675,8.559 C10.0111659,8.72700084 9.81983447,8.85883286 9.5935,8.9545 C9.36716554,9.05016715 9.10933478,9.098 8.82,9.098 Z M8.82,8.468 C8.99733422,8.468 9.15133268,8.43066704 9.282,8.356 C9.41266732,8.28133296 9.51999958,8.18333394 9.604,8.062 C9.68800042,7.94066606 9.74983314,7.80416743 9.7895,7.6525 C9.82916687,7.50083258 9.849,7.34566746 9.849,7.187 C9.849,7.03299923 9.82916687,6.87900077 9.7895,6.725 C9.74983314,6.57099923 9.68800042,6.4345006 9.604,6.3155 C9.51999958,6.19649941 9.41266732,6.09966704 9.282,6.025 C9.15133268,5.95033296 8.99733422,5.913 8.82,5.913 C8.64266578,5.913 8.48866732,5.95033296 8.358,6.025 C8.22733268,6.09966704 8.12000042,6.19649941 8.036,6.3155 C7.95199958,6.4345006 7.89016687,6.57099923 7.8505,6.725 C7.81083314,6.87900077 7.791,7.03299923 7.791,7.187 C7.791,7.34566746 7.81083314,7.50083258 7.8505,7.6525 C7.89016687,7.80416743 7.95199958,7.94066606 8.036,8.062 C8.12000042,8.18333394 8.22733268,8.28133296 8.358,8.356 C8.48866732,8.43066704 8.64266578,8.468 8.82,8.468 Z" id=".io" fill="#FFCF2A"></path>
            </g>
        </g>
    </g>
</svg>